<svg xmlns="http://www.w3.org/2000/svg" xmlns:xlink="http://www.w3.org/1999/xlink" width="85" height="85" viewBox="0 0 85 85"><defs><path id="jr2ka" d="M267 964.5c0-23.472 19.028-42.5 42.5-42.5s42.5 19.028 42.5 42.5-19.028 42.5-42.5 42.5-42.5-19.028-42.5-42.5z"/><path id="jr2kb" d="M299.47 947c5 .258 7.623 1.603 9.395 3.579 2.18 2.431 2.47 6.194 2.684 9.842.33 5.62-.895 13.421-.447 20.132"/><path id="jr2kc" d="M311.11 955.602c2.684-9.842 12.041-8.563 12.06-8.531.019.031-1.323 11.663-11.613 10.768"/><path id="jr2kd" d="M295 980.61l33.433-.105"/><path id="jr2ke" d="M311.102 966.334c-1.79-8.053-11.632-8.948-11.632-8.5 0 .955.895 12.526 11.267 10.626"/></defs><g><g transform="translate(-267 -922)"><g><use fill="#59fdd8" xlink:href="#jr2ka"/></g><g><g><g><use fill="#fff" fill-opacity="0" stroke="#000" stroke-linecap="round" stroke-miterlimit="50" stroke-width="2.5" xlink:href="#jr2kb"/></g><g><use fill="#fff" fill-opacity="0" stroke="#000" stroke-linecap="round" stroke-miterlimit="50" stroke-width="2.5" xlink:href="#jr2kc"/></g><g><use fill="#fff" fill-opacity="0" stroke="#000" stroke-linecap="round" stroke-miterlimit="50" stroke-width="2.5" xlink:href="#jr2kd"/></g><g><use fill="#fff" fill-opacity="0" stroke="#000" stroke-linecap="round" stroke-miterlimit="50" stroke-width="2.5" xlink:href="#jr2ke"/></g></g></g></g></g></svg>