<svg xmlns="http://www.w3.org/2000/svg" xmlns:xlink="http://www.w3.org/1999/xlink" width="85" height="85" viewBox="0 0 85 85"><defs><path id="7lrsa" d="M518 964.5c0-23.472 19.028-42.5 42.5-42.5s42.5 19.028 42.5 42.5-19.028 42.5-42.5 42.5-42.5-19.028-42.5-42.5z"/><path id="7lrsb" d="M557.84 955.78c5.035 2.3 9.474-.994 10.52-5.107.938-3.692 0-8.861-6.848-9.667-7.488-.305-11.833 11.045-3.672 14.773z"/><path id="7lrsc" d="M547 971.409c5.57-12.576 22.1-15.007 28.531.676"/><path id="7lrsd" d="M557.257 967.988c-2.419 2.42-1.663 6.566 2.005 7.64 2.048.599 5.429-.842 5.648-4.015.104-1.508-.806-4.43-3.625-4.833-2.014 0-3.222.403-4.028 1.208z"/><path id="7lrse" d="M553.44 986.297c.846-3.808 3.887-6.627 7.29-6.627 3.404 0 6.848 2.417 8.056 6.444"/></defs><g><g transform="translate(-518 -922)"><g><use fill="#59fdd8" xlink:href="#7lrsa"/></g><g><g><g><use fill="#fff" fill-opacity="0" stroke="#181818" stroke-linecap="round" stroke-miterlimit="50" stroke-width="2.5" xlink:href="#7lrsb"/></g><g><use fill="#fff" fill-opacity="0" stroke="#181818" stroke-linecap="round" stroke-miterlimit="50" stroke-width="2.5" xlink:href="#7lrsc"/></g><g><use fill="#fff" fill-opacity="0" stroke="#181818" stroke-linecap="round" stroke-miterlimit="50" stroke-width="2.5" xlink:href="#7lrsd"/></g><g><use fill="#fff" fill-opacity="0" stroke="#181818" stroke-linecap="round" stroke-miterlimit="50" stroke-width="2.5" xlink:href="#7lrse"/></g></g></g></g></g></svg>