<svg xmlns="http://www.w3.org/2000/svg" xmlns:xlink="http://www.w3.org/1999/xlink" width="85" height="85" viewBox="0 0 85 85"><defs><path id="mv88a" d="M767 964.5c0-23.472 19.028-42.5 42.5-42.5s42.5 19.028 42.5 42.5-19.028 42.5-42.5 42.5-42.5-19.028-42.5-42.5z"/><path id="mv88b" d="M819.618 946.9s1.92 4.6 2.248 6.952c2.676 19.263-22.893 21.484-22.573 2.875.053-3.104 1.08-6.717 2.87-9.827 5.837.13 17.455 0 17.455 0z"/><path id="mv88c" d="M810.584 985.868c-.07-5.585-.05-10.323-.119-15.908z"/><path id="mv88d" d="M803.76 985.492l12.933.125"/><path id="mv88e" d="M792 974.164c12.083-9.88 26.717-19.27 40-30.164"/><path id="mv88f" d="M799.29 958.234l22.376-.46"/></defs><g><g transform="translate(-767 -922)"><g><use fill="#59fdd8" xlink:href="#mv88a"/></g><g><g><use fill="#fff" fill-opacity="0" stroke="#000" stroke-linecap="round" stroke-miterlimit="50" stroke-width="2.5" xlink:href="#mv88b"/></g><g><use fill="#fff" fill-opacity="0" stroke="#000" stroke-linecap="round" stroke-miterlimit="50" stroke-width="2.5" xlink:href="#mv88c"/></g><g><use fill="#fff" fill-opacity="0" stroke="#000" stroke-linecap="round" stroke-miterlimit="50" stroke-width="2.5" xlink:href="#mv88d"/></g><g><use fill="#fff" fill-opacity="0" stroke="#000" stroke-linecap="round" stroke-miterlimit="50" stroke-width="2.5" xlink:href="#mv88e"/></g><g><use fill="#fff" fill-opacity="0" stroke="#000" stroke-linecap="round" stroke-miterlimit="50" stroke-width="2.5" xlink:href="#mv88f"/></g></g></g></g></svg>